<?xml version="1.0" encoding="UTF-8" standalone="no"?>
<!-- Created with Inkscape (http://www.inkscape.org/) -->

<svg
   xmlns:dc="http://purl.org/dc/elements/1.1/"
   xmlns:cc="http://creativecommons.org/ns#"
   xmlns:rdf="http://www.w3.org/1999/02/22-rdf-syntax-ns#"
   xmlns:svg="http://www.w3.org/2000/svg"
   xmlns="http://www.w3.org/2000/svg"
   xmlns:sodipodi="http://sodipodi.sourceforge.net/DTD/sodipodi-0.dtd"
   xmlns:inkscape="http://www.inkscape.org/namespaces/inkscape"
   width="151.07283mm"
   height="69.000427mm"
   viewBox="0 0 151.07283 69.000427"
   version="1.1"
   id="svg641"
   inkscape:version="0.92.3 (2405546, 2018-03-11)"
   sodipodi:docname="logo-stacked.svg">
  <defs
     id="defs635" />
  <sodipodi:namedview
     id="base"
     pagecolor="#ffffff"
     bordercolor="#666666"
     borderopacity="1.0"
     inkscape:pageopacity="0.0"
     inkscape:pageshadow="2"
     inkscape:zoom="0.35"
     inkscape:cx="775.29789"
     inkscape:cy="487.81815"
     inkscape:document-units="mm"
     inkscape:current-layer="layer1"
     showgrid="false"
     fit-margin-top="0"
     fit-margin-left="0"
     fit-margin-right="0"
     fit-margin-bottom="0"
     inkscape:window-width="1920"
     inkscape:window-height="1058"
     inkscape:window-x="0"
     inkscape:window-y="22"
     inkscape:window-maximized="1" />
  <metadata
     id="metadata638">
    <rdf:RDF>
      <cc:Work
         rdf:about="">
        <dc:format>image/svg+xml</dc:format>
        <dc:type
           rdf:resource="http://purl.org/dc/dcmitype/StillImage" />
        <dc:title></dc:title>
      </cc:Work>
    </rdf:RDF>
  </metadata>
  <g
     inkscape:label="Layer 1"
     inkscape:groupmode="layer"
     id="layer1"
     transform="translate(0,-227.99957)">
    <path
       inkscape:connector-curvature="0"
       id="path4997"
       style="font-style:normal;font-variant:normal;font-weight:normal;font-stretch:normal;font-size:540.23040771px;line-height:1.25;font-family:'Rubik Mono One';-inkscape-font-specification:'Rubik Mono One';letter-spacing:-58.88264847px;word-spacing:0px;fill:#e1421f;fill-opacity:1;stroke:none;stroke-width:0.21657416"
       d="m 0.771155,276.2713 h 19.707259 q 0.314174,0 0.542662,0.23357 0.228487,0.23356 0.228487,0.55471 v 4.70045 q 0,0.32115 -0.228487,0.55471 -0.228488,0.23356 -0.542662,0.23356 h -6.140666 v 13.37147 q 0,0.32115 -0.228493,0.55471 -0.228487,0.23357 -0.542661,0.23357 H 7.6829753 q -0.314174,0 -0.542661,-0.23357 -0.228488,-0.23356 -0.228488,-0.55471 V 282.5483 H 0.771155 q -0.314174,0 -0.542662,-0.23356 Q 0,282.08118 0,281.76003 v -4.70045 q 0,-0.32115 0.228493,-0.55471 0.228488,-0.23357 0.542662,-0.23357 z" />
    <path
       inkscape:connector-curvature="0"
       id="path4999"
       style="font-style:normal;font-variant:normal;font-weight:normal;font-stretch:normal;font-size:540.23040771px;line-height:1.25;font-family:'Rubik Mono One';-inkscape-font-specification:'Rubik Mono One';letter-spacing:-58.88264847px;word-spacing:0px;fill:#e1421f;fill-opacity:1;stroke:none;stroke-width:0.21657416"
       d="m 43.076566,284.70876 v 3.56183 q 0,3.00712 -1.42806,5.02159 -1.428063,2.01448 -3.741527,2.86115 Q 35.593521,297 32.451781,297 q -3.141733,0 -5.455192,-0.84667 -2.313464,-0.84667 -3.741527,-2.86115 Q 21.827,291.27771 21.827,288.2122 v -3.44505 q 0,-4.4085 2.941806,-6.59815 2.970372,-2.18965 7.682975,-2.18965 4.712609,0 7.654421,2.18965 2.970364,2.18965 2.970364,6.53976 z m -13.538031,-0.55472 v 4.67126 q 0,1.19701 0.771155,1.83931 0.799715,0.6423 2.142091,0.6423 1.342382,0 2.113537,-0.6423 0.799709,-0.6715 0.799709,-1.8685 v -4.61287 q 0,-1.19701 -0.799709,-1.8393 -0.771155,-0.6715 -2.113537,-0.6715 -1.342376,0 -2.142091,0.6423 -0.771155,0.6423 -0.771155,1.8393 z" />
    <path
       inkscape:connector-curvature="0"
       id="path5001"
       style="font-style:normal;font-variant:normal;font-weight:normal;font-stretch:normal;font-size:540.23040771px;line-height:1.25;font-family:'Rubik Mono One';-inkscape-font-specification:'Rubik Mono One';letter-spacing:-58.88264847px;word-spacing:0px;fill:#e1421f;fill-opacity:1;stroke:none;stroke-width:0.21657416"
       d="m 65.425076,284.70876 v 3.56183 q 0,3.00712 -1.42806,5.02159 -1.42807,2.01448 -3.74152,2.86115 Q 57.942026,297 54.800296,297 q -3.14174,0 -5.4552,-0.84667 -2.31347,-0.84667 -3.74153,-2.86115 -1.42805,-2.01447 -1.42805,-5.07998 v -3.44505 q 0,-4.4085 2.9418,-6.59815 2.97037,-2.18965 7.68298,-2.18965 4.7126,0 7.65441,2.18965 2.97037,2.18965 2.97037,6.53976 z m -13.53803,-0.55472 v 4.67126 q 0,1.19701 0.77115,1.83931 0.79971,0.6423 2.1421,0.6423 1.34237,0 2.11352,-0.6423 0.79972,-0.6715 0.79972,-1.8685 v -4.61287 q 0,-1.19701 -0.79972,-1.8393 -0.77115,-0.6715 -2.11352,-0.6715 -1.34239,0 -2.1421,0.6423 -0.77115,0.6423 -0.77115,1.8393 z" />
    <path
       inkscape:connector-curvature="0"
       id="path5003"
       style="font-style:normal;font-variant:normal;font-weight:normal;font-stretch:normal;font-size:540.23040771px;line-height:1.25;font-family:'Rubik Mono One';-inkscape-font-specification:'Rubik Mono One';letter-spacing:-58.88264847px;word-spacing:0px;fill:#e1421f;fill-opacity:1;stroke:none;stroke-width:0.21657416"
       d="m 74.524116,290.723 h 9.73938 q 0.31418,0 0.54267,0.23356 0.22849,0.23356 0.22849,0.55472 v 4.40849 q 0,0.32115 -0.22849,0.55471 -0.22849,0.23357 -0.54267,0.23357 h -16.67977 q -0.31417,0 -0.54265,-0.23357 -0.22849,-0.23356 -0.22849,-0.55471 v -18.86019 q 0,-0.32115 0.22849,-0.55471 0.22848,-0.23357 0.54265,-0.23357 h 6.16924 q 0.31416,0 0.54266,0.23357 0.22849,0.23356 0.22849,0.55471 z" />
    <path
       inkscape:connector-curvature="0"
       id="path5005"
       style="font-style:normal;font-variant:normal;font-weight:normal;font-stretch:normal;font-size:540.23040771px;line-height:1.25;font-family:'Rubik Mono One';-inkscape-font-specification:'Rubik Mono One';letter-spacing:-58.88264847px;word-spacing:0px;fill:#e1421f;fill-opacity:1;stroke:none;stroke-width:0.21657416"
       d="m 107.68071,295.6862 q 0.11425,0.17518 0.11425,0.40874 0,0.23356 -0.19994,0.43793 -0.17136,0.17518 -0.42842,0.17518 h -7.368799 q -0.6569,0 -1.0282,-0.46713 l -4.969655,-6.277 v 5.95585 q 0,0.32115 -0.2285,0.55471 -0.22848,0.23357 -0.54266,0.23357 h -5.88362 q -0.31417,0 -0.54266,-0.23357 -0.22849,-0.23356 -0.22849,-0.55471 v -18.86019 q 0,-0.32115 0.22849,-0.55471 0.22849,-0.23357 0.54266,-0.23357 h 5.88362 q 0.31418,0 0.54266,0.23357 0.2285,0.23356 0.2285,0.55471 v 5.48872 l 4.512675,-5.78068 q 0.42842,-0.49632 1.05677,-0.49632 h 6.883259 q 0.25705,0 0.42842,0.20436 0.19993,0.17518 0.19993,0.43794 0,0.23356 -0.14281,0.40873 l -6.769019,8.43746 z" />
    <path
       inkscape:connector-curvature="0"
       id="path5007"
       style="font-style:normal;font-variant:normal;font-weight:normal;font-stretch:normal;font-size:540.23040771px;line-height:1.25;font-family:'Rubik Mono One';-inkscape-font-specification:'Rubik Mono One';letter-spacing:-58.88264847px;word-spacing:0px;fill:#e1421f;fill-opacity:1;stroke:none;stroke-width:0.21657416"
       d="m 126.93119,282.25635 h -5.16959 v 8.46665 h 5.16959 q 0.31417,0 0.54266,0.23356 0.22849,0.23356 0.22849,0.55472 v 4.40849 q 0,0.32115 -0.22849,0.55471 -0.22849,0.23357 -0.54266,0.23357 h -18.10783 q -0.31417,0 -0.54266,-0.23357 -0.2285,-0.23356 -0.2285,-0.55471 v -4.40849 q 0,-0.32116 0.2285,-0.55472 0.22849,-0.23356 0.54266,-0.23356 h 5.2267 v -8.46665 h -5.2267 q -0.31417,0 -0.54266,-0.23356 -0.2285,-0.23357 -0.2285,-0.55472 v -4.40849 q 0,-0.32115 0.2285,-0.55471 0.22849,-0.23357 0.54266,-0.23357 h 18.10783 q 0.31417,0 0.54266,0.23357 0.22849,0.23356 0.22849,0.55471 v 4.40849 q 0,0.32115 -0.22849,0.55472 -0.22849,0.23356 -0.54266,0.23356 z" />
    <path
       inkscape:connector-curvature="0"
       id="path5009"
       style="font-style:normal;font-variant:normal;font-weight:normal;font-stretch:normal;font-size:540.23040771px;line-height:1.25;font-family:'Rubik Mono One';-inkscape-font-specification:'Rubik Mono One';letter-spacing:-58.88264847px;word-spacing:0px;fill:#e1421f;fill-opacity:1;stroke:none;stroke-width:0.21657416"
       d="m 129.68105,276.2713 h 19.70726 q 0.31417,0 0.54266,0.23357 0.22849,0.23356 0.22849,0.55471 v 4.70045 q 0,0.32115 -0.22849,0.55471 -0.22849,0.23356 -0.54266,0.23356 h -6.14068 v 13.37147 q 0,0.32115 -0.22848,0.55471 -0.22849,0.23357 -0.54266,0.23357 h -5.88362 q -0.31418,0 -0.54266,-0.23357 -0.22849,-0.23356 -0.22849,-0.55471 V 282.5483 h -6.14067 q -0.31417,0 -0.54266,-0.23356 -0.22849,-0.23356 -0.22849,-0.55471 v -4.70045 q 0,-0.32115 0.22849,-0.55471 0.22849,-0.23357 0.54266,-0.23357 z" />
    <g
       inkscape:export-ydpi="1.5561962"
       inkscape:export-xdpi="1.5561962"
       id="text4491-4-81-2-7"
       style="font-style:normal;font-variant:normal;font-weight:bold;font-stretch:normal;font-size:551.27655029px;line-height:1.25;font-family:'Rubik Mono One';-inkscape-font-specification:'Rubik Mono One Bold';letter-spacing:0px;word-spacing:0px;fill:#e1421f;fill-opacity:1;stroke:none;stroke-width:4.13457394"
       transform="matrix(0.0942531,0,0,0.09788601,-274.17891,58.006736)"
       aria-label="HTTP">
      <path
         inkscape:connector-curvature="0"
         id="path7194-53"
         style="letter-spacing:-40.21031952px;fill:#e1421f;fill-opacity:1;stroke-width:4.13457394"
         d="m 3177.4362,1736.6408 h 113.563 q 6.0641,0 10.4743,4.4103 4.4102,4.4102 4.4102,10.4742 V 2107.65 q 0,6.064 -4.4102,10.4742 -4.4102,4.4102 -10.4743,4.4102 h -113.563 q -6.064,0 -10.4742,-4.4102 -4.4102,-4.4102 -4.4102,-10.4742 V 1990.2281 H 3052.2965 V 2107.65 q 0,6.064 -4.4102,10.4742 -4.4103,4.4102 -10.4743,4.4102 h -113.563 q -6.064,0 -10.4742,-3.8589 -4.4102,-4.4102 -4.4102,-11.0255 v -356.1247 q 0,-6.064 4.4102,-10.4742 4.4102,-4.4103 10.4742,-4.4103 h 113.563 q 6.064,0 10.4743,4.4103 4.4102,4.4102 4.4102,10.4742 v 113.0117 h 110.2553 v -113.0117 q 0,-6.064 4.4102,-10.4742 4.4102,-4.4103 10.4742,-4.4103 z" />
      <path
         sodipodi:nodetypes="ccsscscscsscsccscsscscscssccc"
         inkscape:connector-curvature="0"
         id="path7196-5"
         transform="scale(0.2696342,0.25962708)"
         d="m 12407.154,6688.9824 c -14.993,0 -27.941,5.6616 -38.845,16.9864 -10.905,11.3244 -16.358,24.7726 -16.358,40.3437 v 341.8574 c 0,15.5713 5.453,29.0193 16.358,40.3438 10.904,11.3244 23.852,16.9863 38.845,16.9863 h 439.575 v 972.4902 c 0,15.5711 5.453,29.0193 16.357,40.3438 10.904,11.3244 23.852,16.9863 38.846,16.9863 h 421.173 c 14.994,0 27.942,-5.6619 38.846,-16.9863 10.904,-11.3245 16.358,-24.7727 16.358,-40.3438 V 7145.5 c 267.026,0 534.052,0 801.078,0 v 972.4902 c 0,15.5711 5.453,29.0193 16.357,40.3438 10.904,11.3244 23.852,16.9863 38.846,16.9863 h 421.174 c 14.993,0 27.943,-5.6619 38.847,-16.9863 10.904,-11.3245 16.356,-24.7727 16.356,-40.3438 V 7145.5 h 439.574 c 14.993,0 27.944,-5.6619 38.848,-16.9863 10.904,-11.3245 16.355,-24.7725 16.355,-40.3438 v -341.8574 c 0,-15.5711 -5.451,-29.0193 -16.355,-40.3437 -10.904,-11.3248 -23.855,-16.9864 -38.848,-16.9864 -914.462,0 -1828.925,0 -2743.387,0 z"
         style="letter-spacing:-109.03938293px;fill:#e1421f;fill-opacity:1;stroke-width:15.62673569" />
      <path
         inkscape:connector-curvature="0"
         id="path7200-6"
         style="font-style:normal;font-variant:normal;font-weight:bold;font-stretch:normal;font-size:551.27655029px;font-family:'Rubik Mono One';-inkscape-font-specification:'Rubik Mono One Bold';letter-spacing:-77.50056458px;fill:#e1421f;fill-opacity:1;stroke-width:4.13457394"
         d="m 4135.8358,1736.6408 h 206.1774 q 78.2813,0 124.0372,38.0381 45.756,38.0381 45.756,97.576 0,59.5378 -38.5894,94.8195 -38.5893,34.7305 -131.2038,34.7305 h -72.7685 V 2107.65 q 0,6.064 -4.4102,10.4742 -4.4102,4.4102 -10.4743,4.4102 h -118.5244 q -6.0641,0 -10.4743,-4.4102 -4.4102,-4.4102 -4.4102,-10.4742 v -356.1247 q 0,-6.064 4.4102,-10.4742 4.4102,-4.4103 10.4743,-4.4103 z m 133.9602,102.5375 v 60.6404 h 70.0121 q 12.6794,0 20.3972,-7.7179 8.2692,-7.7178 8.2692,-21.4998 0,-13.7819 -7.7179,-22.6023 -7.7178,-8.8204 -20.9485,-8.8204 z" />
    </g>
  </g>
</svg>
