<?xml version="1.0" encoding="UTF-8"?>
<svg width="99.301mm" height="99.301mm" version="1.1" viewBox="0 0 99.301 99.301" xmlns="http://www.w3.org/2000/svg" xmlns:cc="http://creativecommons.org/ns#" xmlns:dc="http://purl.org/dc/elements/1.1/" xmlns:rdf="http://www.w3.org/1999/02/22-rdf-syntax-ns#">
<metadata>
<rdf:RDF>
<cc:Work rdf:about="">
<dc:format>image/svg+xml</dc:format>
<dc:type rdf:resource="http://purl.org/dc/dcmitype/StillImage"/>
<dc:title/>
</cc:Work>
</rdf:RDF>
</metadata>
<g transform="translate(-54.622 -84.035)">
<rect x="54.622" y="84.035" width="99.301" height="99.301" fill-opacity="0"/>
<path d="m87.113 88.513h11.662q0.62275 0 1.0756 0.47037 0.4529 0.47036 0.4529 1.1171v37.982q0 0.64674-0.4529 1.1171-0.4529 0.47035-1.0756 0.47035h-11.662q-0.62274 0-1.0756-0.47035-0.4529-0.47036-0.4529-1.1171v-12.523h-11.323v12.523q0 0.64674-0.4529 1.1171-0.45292 0.47035-1.0757 0.47035h-11.662q-0.62274 0-1.0756-0.41155-0.4529-0.47036-0.4529-1.1759v-37.982q0-0.64674 0.4529-1.1171 0.4529-0.47037 1.0756-0.47037h11.662q0.62273 0 1.0757 0.47037 0.4529 0.47036 0.4529 1.1171v12.053h11.323v-12.053q0-0.64674 0.4529-1.1171 0.4529-0.47037 1.0756-0.47037z" fill="#e1421f"/>
<path d="m107.76 88.513h39.687q0.63269 0 1.0928 0.47036 0.46014 0.47035 0.46014 1.1171v9.466q0 0.64674-0.46014 1.1171-0.46014 0.47036-1.0928 0.47036h-12.366v26.928q0 0.64675-0.46015 1.1171-0.46014 0.47036-1.0928 0.47036h-11.849q-0.63269 0-1.0928-0.47036-0.46014-0.47036-0.46014-1.1171v-26.928h-12.366q-0.63269 0-1.0928-0.47036-0.46015-0.47035-0.46015-1.1171v-9.466q0-0.64675 0.46015-1.1171 0.46014-0.47036 1.0928-0.47036z" fill="#e1421f"/>
<path d="m110.39 137.7h21.173q8.039 0 12.738 4.0569 4.6989 4.0568 4.6989 10.407 0 6.3498-3.9629 10.113-3.9629 3.7041-13.474 3.7041h-7.4729v11.289q0 0.64674-0.4529 1.1171t-1.0756 0.47036h-12.172q-0.62274 0-1.0756-0.47036-0.4529-0.47036-0.4529-1.1171v-37.982q0-0.64674 0.4529-1.1171 0.45291-0.47037 1.0756-0.47037zm13.757 10.936v6.4674h7.1898q1.3021 0 2.0947-0.82312 0.8492-0.82312 0.8492-2.293 0-1.4699-0.79258-2.4106t-2.1513-0.94072z" fill="#e1421f"/>
<path d="m61.096 137.7h39.687q0.6327 0 1.0928 0.47036 0.46014 0.47035 0.46014 1.1171v9.466q0 0.64675-0.46014 1.1171-0.46014 0.47037-1.0928 0.47037h-12.366v26.928q0 0.64676-0.46015 1.1171-0.46014 0.47037-1.0928 0.47037h-11.849q-0.63269 0-1.0928-0.47037-0.46014-0.47035-0.46014-1.1171v-26.928h-12.366q-0.6327 0-1.0928-0.47037-0.46015-0.47034-0.46015-1.1171v-9.466q0-0.64676 0.46015-1.1171 0.46014-0.47036 1.0928-0.47036z" fill="#e1421f"/>
</g>
</svg>